<?xml version="1.0" standalone="no"?>
<!DOCTYPE svg PUBLIC "-//W3C//DTD SVG 20010904//EN"
 "http://www.w3.org/TR/2001/REC-SVG-20010904/DTD/svg10.dtd">
<svg version="1.0" xmlns="http://www.w3.org/2000/svg"
 width="512.000000pt" height="512.000000pt" viewBox="0 0 512.000000 512.000000"
 preserveAspectRatio="xMidYMid meet">
<metadata>
Created by potrace 1.14, written by Peter Selinger 2001-2017
</metadata>
<g transform="translate(0.000000,512.000000) scale(0.100000,-0.100000)"
fill="#000000" stroke="none">
<path d="M361 4204 c-169 -45 -303 -180 -345 -346 -15 -59 -16 -188 -14 -1334
3 -1221 4 -1271 22 -1319 42 -110 119 -202 217 -260 116 -68 -51 -63 2319 -64
1991 -1 2149 0 2205 16 56 16 79 27 160 78 42 25 119 118 145 171 50 108 48
63 49 1399 1 1384 5 1308 -64 1430 -56 100 -148 178 -260 221 -49 18 -112 19
-2215 21 -1865 1 -2172 0 -2219 -13z m1470 -958 c132 -28 245 -110 296 -215
26 -52 28 -65 27 -171 0 -198 -37 -255 -351 -556 l-218 -209 312 -3 313 -2 0
-110 0 -110 -505 0 -505 0 0 89 0 89 268 255 c147 140 291 280 320 311 155
164 138 357 -37 406 -54 15 -170 12 -232 -6 -62 -18 -140 -65 -169 -101 -22
-29 -18 -31 -128 55 l-84 64 44 45 c82 86 197 146 329 172 70 14 248 12 320
-3z m1714 -1 c190 -50 345 -216 400 -430 36 -138 36 -383 0 -520 -55 -214
-210 -380 -400 -430 -75 -19 -214 -19 -288 0 -298 78 -470 397 -428 796 33
311 184 519 424 584 70 19 219 19 292 0z m-925 -1083 c48 -36 70 -80 70 -142
0 -71 -27 -116 -90 -148 -130 -67 -269 52 -230 196 14 54 45 89 95 107 49 18
120 12 155 -13z"/>
<path d="M3300 3015 c-132 -60 -197 -188 -207 -410 -11 -251 45 -412 172 -490
44 -27 56 -30 134 -30 76 0 92 3 132 27 118 70 178 219 178 443 0 223 -60 374
-176 442 -58 33 -177 43 -233 18z"/>
</g>
</svg>
